<?xml version="1.0" encoding="UTF-8" standalone="no"?>
<!-- Generator: Adobe Illustrator 18.0.0, SVG Export Plug-In . SVG Version: 6.00 Build 0)  -->

<svg
   version="1.1"
   id="Capa_1"
   x="0px"
   y="0px"
   viewBox="0 0 500.00001 430.00001"
   xml:space="preserve"
   width="500"
   height="430"
   xmlns="http://www.w3.org/2000/svg"
   xmlns:svg="http://www.w3.org/2000/svg"><defs
   inkscape:zoom="1.6632619"
   inkscape:cx="227.8655"
   inkscape:cy="227.8655"
   inkscape:window-width="1918"
   inkscape:window-height="1057"
   inkscape:window-x="0"
   inkscape:window-y="21"
   inkscape:window-maximized="1"
   inkscape:current-layer="Capa_1" />
<path
   id="rect1014"
   style="stroke-width:1.38951"
   inkscape:label="rect1014"
   d="m 433.65583,47.131554 c -0.94869,-0.04241 -1.90888,-0.02364 -2.87854,0.05921 -1.93927,0.165717 -3.91099,0.588989 -5.87336,1.302724 L 12.464933,198.51635 c -1.669874,0.60744 -3.1187231,1.41914 -4.3481971,2.38092 -1.2294744,0.96177 -2.2406046,2.07387 -3.0344854,3.28394 -0.7938816,1.21008 -1.3709006,2.51631 -1.7339916,3.8687 -0.363095,1.35238 -0.512247,2.75142 -0.449358,4.14008 0.06289,1.38867 0.337995,2.76688 0.822059,4.08582 0.484067,1.31895 1.1771809,2.57745 2.0776198,3.72066 0.9004362,1.14321 2.0079567,2.17082 3.3199602,3.03228 1.3120021,0.86147 2.8276791,1.55685 4.5464431,2.03057 l 104.806067,28.88689 39.11263,115.84858 c 0.51073,1.51259 1.21617,2.89203 2.07498,4.1327 0.85879,1.24067 1.8711,2.34184 3.00277,3.29381 1.13164,0.95197 2.38188,1.75666 3.71115,2.40313 1.32929,0.64648 2.73796,1.13398 4.18961,1.45816 1.45164,0.32418 2.94721,0.4837 4.44599,0.46878 1.49878,-0.0149 3.00175,-0.20408 4.47244,-0.57486 1.47068,-0.37082 2.90685,-0.92193 4.27418,-1.66542 1.36734,-0.74349 2.66515,-1.67726 3.8539,-2.81023 l 54.18725,-51.64507 106.31804,72.84639 c 1.62637,1.11433 3.34058,1.98686 5.09888,2.63012 1.75832,0.64325 3.56196,1.05716 5.37114,1.2583 1.80922,0.20116 3.6238,0.18733 5.40287,-0.0247 1.77909,-0.21198 3.52347,-0.62265 5.19141,-1.21883 1.66793,-0.59617 3.25836,-1.37772 4.73412,-2.32911 1.47574,-0.95139 2.83636,-2.07294 4.03892,-3.35056 1.20257,-1.27763 2.24693,-2.71075 3.09529,-4.28566 0.84835,-1.57492 1.50062,-3.29118 1.91373,-5.13442 L 453.37734,71.00247 c 0.43122,-1.92424 0.55382,-3.8077 0.40972,-5.62046 -0.14411,-1.81276 -0.55688,-3.5547 -1.19741,-5.19362 -0.64054,-1.63893 -1.50857,-3.17655 -2.56662,-4.57927 -1.05807,-1.40272 -2.30653,-2.67078 -3.70324,-3.774934 -1.39671,-1.104153 -2.94286,-2.042329 -4.59931,-2.78556 -1.65646,-0.743218 -3.42281,-1.291189 -5.26013,-1.611129 -0.91866,-0.159967 -1.85584,-0.263539 -2.80452,-0.305943 z m -63.53124,62.888456 c 3.9788,0.14704 6.79804,5.13851 3.07149,8.21357 L 181.61903,276.36143 c -1.90959,1.57654 -3.12562,3.759 -3.40983,6.12379 l -7.37475,61.20083 c -0.2409,1.99593 -3.23498,2.26057 -3.87241,0.34296 l -30.34751,-91.27202 c -1.3899,-4.17882 0.42341,-8.70851 4.40635,-11.01394 L 367.25133,110.77499 c 0.9757,-0.5649 1.95507,-0.78891 2.87326,-0.75498 z" />
</svg>
